<svg preserveAspectRatio="none" width="100%" height="100%" overflow="visible" style="display: block;" viewBox="0 0 251 22" fill="none" xmlns="http://www.w3.org/2000/svg">
<g id="Takeaway CTA &#226;&#128;&#148; arrow frame" clip-path="url(#clip0_0_27)">
<path id="CTA doodle arrow stroke" d="M249.39 12.7911L195.938 22.3062C191.757 22.0734 194.999 20.0726 196.787 19.1464C202.817 16.025 212.438 15.457 220.131 14.1113C221.05 13.9501 222.774 14.0141 222.569 13.3591L154.026 13.336C151.962 13.354 150.054 13.7991 147.986 13.8196C104.21 14.2597 60.7296 15.869 17.0689 16.5009C12.1683 16.5726 7.21273 16.4753 2.31714 16.4216C0.583699 16.1786 0.204041 14.1932 1.41295 13.7531C3.18636 13.5459 4.81989 13.0879 6.63325 12.942C41.8066 10.1174 82.5449 12.3075 118.243 10.207L222.574 9.7746L200.833 5.04903C197.911 3.82862 194.035 2.98175 194.724 0.681646L196.757 -0.032177L249.115 10.271L250.489 11.3276L249.4 12.7937L249.39 12.7911Z" fill="var(--fill-0, white)"/>
</g>
<defs>
<clipPath id="clip0_0_27">
<rect width="251" height="22" fill="white"/>
</clipPath>
</defs>
</svg>
