<svg preserveAspectRatio="none" width="100%" height="100%" overflow="visible" style="display: block;" viewBox="0 0 166.2 144.1" fill="none" xmlns="http://www.w3.org/2000/svg">
<g id="Torn Paper Shape - Small" clip-path="url(#clip0_0_58)">
<path id="Paper Shape" fill-rule="evenodd" clip-rule="evenodd" d="M-19.8167 144.035H-22.8298V73.9556C-20.4359 70.9818 -20.5615 66.5631 -17.1166 64.033C-14.8521 62.3703 -13.1432 66.0572 -12.5543 65.6148C-8.733 62.7447 -5.88938 62.3653 -1.14775 59.9912C0.118207 59.357 0.383103 52.2582 1.48458 52.2582C3.24952 52.2582 5.69334 56.126 8.32874 55.0704C12.1574 53.5366 13.6032 49.0846 16.0495 46.634C16.1179 46.5655 16.6446 46.634 16.7518 46.634C27.0014 46.634 26.8567 42.3467 37.1075 39.7802C37.7753 39.613 41.9723 40.1806 42.5477 39.6043C43.3627 38.7881 42.2976 36.2148 43.9517 35.3862C45.7388 34.4916 49.82 36.5386 53.4275 32.9257C54.107 32.2458 53.4331 30.1994 54.3054 29.7626C54.8327 29.4985 57.1866 30.9699 57.2882 30.8169C58.9152 28.3726 59.1339 26.8659 61.3245 29.0592C61.5075 29.2425 61.9418 26.6592 62.3773 26.9505C62.8369 27.2571 62.8646 28.747 63.2552 28.3565C64.9764 26.6327 68.2629 22.6854 70.2743 21.6779C71.1177 21.2559 72.3091 23.9292 72.731 23.0839C73.1709 22.2029 72.8093 19.9528 73.9594 19.5691C74.5779 19.3624 76.4969 21.0702 76.5918 20.9752C78.0043 19.5605 76.9534 15.6915 78.3462 14.2966C79.5518 13.0898 82.6283 16.7101 83.6109 16.0543C86.0608 14.4187 89.5427 10.8163 91.6834 8.67295C92.1596 8.19539 90.8635 6.80045 90.9811 6.56355C91.1524 6.2205 92.7658 5.90091 93.0874 5.86081C94.3145 5.70721 96.1127 6.90103 97.123 6.56355C97.6972 6.3723 105.869 -0.261893 106.951 -1.34466C110.059 -4.45787 113.391 -6.77024 116.972 -8.88272H166.168V9.78163C166.09 9.81307 166.004 9.83036 165.906 9.83036C163.75 9.83036 161.111 8.96539 159.517 11.3604C158.54 12.8275 161.376 17.7059 160.628 18.4549C160.151 18.9324 157.276 17.4208 156.322 17.8984C156.291 17.9138 153.553 20.3027 153.267 20.5415C151.714 21.8365 146.983 31.0082 145.072 32.9214C143.389 34.6069 140.631 33.824 138.543 34.8691C138.417 34.9327 138.3 35.1844 138.266 35.2862C137.124 38.7178 136.161 41.1912 133.544 44.4672C132.315 46.0047 130.727 44.2785 129.515 44.8843C128.819 45.2335 119.923 53.9351 119.515 54.3436C119.403 54.4565 107.962 56.7904 106.181 57.682C106.128 57.7085 102.581 63.6313 101.876 64.2199C100.931 65.0084 101.026 63.1149 100.209 63.524C98.7943 64.2322 98.5799 66.8438 97.431 67.4188C96.9074 67.6811 94.7679 66.953 93.6806 67.5583C91.3452 68.8576 83.4489 76.5536 81.1806 78.8259C78.8643 81.145 70.9131 83.2766 68.2629 83.2766C66.5387 83.2766 66.7087 86.0857 65.9017 86.8939C65.6626 87.1333 65.0183 86.309 64.9296 86.1979C63.1967 84.0287 61.9412 88.5319 61.1798 89.6758C61.0849 89.8177 58.3891 88.7084 57.8458 88.9798C54.7945 90.508 54.1588 95.6257 51.0404 97.1873C46.9302 99.2455 40.8462 101.581 38.4006 105.255C38.0211 105.825 33.8659 104.574 32.8452 105.255C31.3223 106.272 31.5687 108.369 30.9003 109.707C30.5633 110.382 29.2912 108.85 28.6783 109.289C25.3862 111.644 23.8855 113.811 21.0388 116.662C20.1702 117.532 15.7021 116.343 14.5113 116.94C12.5492 117.922 13.0014 121.79 11.733 123.06C5.92189 128.88 2.78133 125.262 -1.87837 127.929C-3.33406 128.762 -3.27923 130.172 -4.10103 131.406C-4.48112 131.977 -6.87874 130.989 -7.57301 131.546C-9.30407 132.932 -11.9247 136.646 -13.6847 137.527C-14.3531 137.862 -16.7359 137.29 -17.0181 137.666C-18.4085 139.523 -18.6789 141.931 -19.8167 144.035Z" fill="var(--fill-0, #DBDBDB)"/>
</g>
<defs>
<clipPath id="clip0_0_58">
<rect width="166.2" height="144.1" fill="white"/>
</clipPath>
</defs>
</svg>
