<svg preserveAspectRatio="none" width="100%" height="100%" overflow="visible" style="display: block;" viewBox="0 0 364.865 136.56" fill="none" xmlns="http://www.w3.org/2000/svg">
<g id="Journey CTA &#226;&#128;&#148; visible Bar label + underline group">
<path id="Curved Text - journey - change font to Waterlily" d="M71.7207 80.5337C71.8813 80.8018 72.2114 81.2719 72.7111 81.944L73.1768 82.7215C73.3052 82.9359 73.4193 83.2076 73.5191 83.5363C73.5405 83.5721 73.5584 83.6221 73.5726 83.6864C73.5868 83.7508 73.5993 83.7919 73.61 83.8097C73.6314 83.8455 73.6546 83.9044 73.6796 83.9866C73.6938 84.051 73.7063 84.0921 73.717 84.1099L73.8775 84.378C73.8883 84.3959 73.9168 84.4638 73.9631 84.5818C74.0095 84.6997 74.0594 84.8033 74.113 84.8927C74.3483 85.5289 74.4641 85.8845 74.4605 85.9595C74.8136 86.7922 75.0361 87.7517 75.1282 88.838C75.2031 88.9631 75.2334 89.0542 75.2191 89.1114C75.3047 89.2543 75.3511 89.3723 75.3581 89.4652C75.3793 89.7439 75.4042 89.9476 75.4327 90.0762C75.4468 90.262 75.4376 90.6925 75.4049 91.3678L75.442 91.8555C75.4277 91.9127 75.4258 92.0109 75.4364 92.1503C75.4363 92.2718 75.4291 92.3611 75.4148 92.4182C75.4754 92.6005 75.4823 92.9363 75.4354 93.4258C75.4425 93.5187 75.4156 93.6562 75.3547 93.8384C75.301 93.992 75.2777 94.1152 75.2848 94.2081C75.3062 94.2439 75.3025 94.3189 75.2739 94.4332L75.2415 94.744L75.1821 95.2531C75.1535 95.3674 75.1051 95.53 75.037 95.7407C74.9869 95.9408 74.9474 96.0979 74.9188 96.2122C74.8794 96.3087 74.788 96.6427 74.6447 97.2142C74.6125 97.2821 74.557 97.4125 74.4782 97.6053C74.3995 97.7982 74.3172 97.9446 74.2314 98.0446C74.2061 98.3268 74.1059 98.6054 73.9306 98.8804C73.8984 98.9483 73.8268 99.0518 73.716 99.1911C73.5944 99.3125 73.5264 99.4018 73.5121 99.4589L73.3189 99.8661C73.0576 100.362 72.8126 100.704 72.5838 100.889C72.2655 101.371 71.9794 101.725 71.7255 101.95C71.2785 102.46 70.3864 103.262 69.0493 104.354L68.4595 104.707L67.7893 105.109C67.7392 105.187 67.6606 105.259 67.5533 105.323L67.178 105.548C67.0494 105.576 66.8331 105.681 66.5293 105.863C66.4292 105.899 66.2845 105.961 66.095 106.05C65.9056 106.14 65.7608 106.202 65.6608 106.238C65.5607 106.273 65.416 106.336 65.2265 106.425C65.0371 106.514 64.9013 106.571 64.8191 106.596C63.654 107.003 62.9893 107.231 62.8249 107.281C62.4139 107.405 61.6349 107.544 60.4879 107.697C59.4946 107.782 58.6281 107.754 57.8887 107.614C57.7315 107.514 57.6244 107.457 57.5672 107.443C57.528 107.418 57.4815 107.421 57.4279 107.453C57.3743 107.485 57.3099 107.5 57.2349 107.496C57.1778 107.482 57.1385 107.457 57.1171 107.421C57.1028 107.357 57.0761 107.312 57.0368 107.287C56.008 107.029 55.2454 106.769 54.749 106.508C53.9847 106.043 53.342 105.578 52.8207 105.113L52.7243 104.952C52.603 104.831 52.4209 104.648 52.1781 104.405C51.9425 104.133 51.764 103.937 51.6426 103.815C51.5284 103.665 51.366 103.434 51.1555 103.123C50.9449 102.812 50.7879 102.591 50.6844 102.458C50.4382 102.047 50.2723 101.649 50.1869 101.263L50.069 101.188C50.0476 101.152 50.0548 101.123 50.0905 101.102C50.1156 101.063 50.1317 101.029 50.1389 101L49.9301 100.652C49.727 99.9478 49.6006 99.4528 49.5508 99.1669C49.3689 98.7416 49.2996 98.261 49.3429 97.7251L49.3915 97.2589L49.306 96.873C49.3775 96.8301 49.3651 96.7283 49.2687 96.5675L49.3545 96.589C49.4296 96.4711 49.444 96.2925 49.3978 96.0531C49.4123 95.7529 49.4339 95.5457 49.4626 95.4314C49.477 95.2528 49.5415 94.9956 49.6561 94.6598C49.7707 94.3241 49.8351 94.1276 49.8495 94.0705C49.8276 94.6421 49.9434 94.9977 50.197 95.1372C50.2292 95.0694 50.2651 94.9265 50.3045 94.7086C50.344 94.4907 50.3745 94.3388 50.396 94.2531C50.4963 93.853 50.6341 93.5762 50.8093 93.4227C50.9957 92.6797 51.2462 92.1047 51.561 91.6976C51.9795 91.0584 52.4694 90.4978 53.0307 90.0159C53.1022 89.9731 53.1165 89.9159 53.0737 89.8444C53.8959 89.352 54.5696 88.9971 55.095 88.7795C55.4488 88.6404 55.8509 88.5211 56.3012 88.4214C56.1261 88.4534 55.7973 88.5532 55.3148 88.7207C54.4713 89.0559 53.8172 89.4234 53.3524 89.8232C52.7554 90.3265 52.2619 90.8407 51.8721 91.3656C51.5287 91.8869 51.2317 92.4655 50.9811 93.1013C50.9667 93.1585 50.9005 93.3317 50.7824 93.621C50.6535 93.8924 50.564 94.1282 50.5138 94.3282C50.4995 94.3854 50.4294 94.8766 50.3037 95.8019C50.232 96.0876 50.2694 96.2717 50.4158 96.354C50.5014 96.497 50.6515 96.5042 50.866 96.3758C50.9056 95.9149 50.9255 95.6237 50.9256 95.5022C50.9508 95.22 51.0136 94.9396 51.1138 94.661C51.2568 94.5753 51.3604 94.5861 51.4246 94.6934C51.4209 94.8899 51.3921 95.1864 51.3382 95.5829C51.2843 95.9795 51.2591 96.2617 51.2625 96.4297C51.3297 97.3122 51.3918 97.8214 51.4489 97.9572C51.4131 98.1001 51.4594 98.2788 51.5878 98.4933C51.6413 98.5826 51.711 98.6381 51.7967 98.6596L51.9576 98.5632C51.9362 98.406 51.942 97.929 51.9748 97.1323C52.1468 96.4464 52.2293 95.9963 52.2223 95.7819C52.3082 95.682 52.4583 95.5677 52.6728 95.4393C52.655 95.3285 52.682 95.1302 52.7536 94.8445C52.8146 94.5408 52.8559 94.3461 52.8774 94.2604L52.9846 94.1962C53.0778 93.8247 53.2621 93.4228 53.5375 92.9907C53.8631 92.4801 54.142 92.1552 54.3744 92.016C54.1705 92.2838 53.9559 92.5945 53.7305 92.948C53.5374 93.1122 53.3639 93.4104 53.21 93.8426C53.1956 93.8998 53.2099 93.9641 53.2527 94.0356C53.1346 94.3249 53.0325 94.641 52.9465 94.984C52.9178 95.0983 52.8801 95.2787 52.8335 95.5252C52.8047 95.7609 52.776 95.936 52.7473 96.0503C52.7795 96.1039 52.833 96.1325 52.9081 96.1362C52.9902 96.1112 53.0367 96.047 53.0475 95.9433C53.1011 96.0327 53.1207 96.106 53.1063 96.1631C53.1277 96.1989 53.1563 96.206 53.1921 96.1846C53.1956 96.2311 53.1902 96.2829 53.1759 96.34C53.1615 96.3972 53.1561 96.449 53.1597 96.4954C53.1525 96.524 53.1435 96.5901 53.1327 96.6937C53.1291 96.7688 53.1201 96.8348 53.1058 96.892C53.1272 96.9277 53.1611 96.9438 53.2076 96.9403C53.2433 96.9189 53.2737 96.8886 53.2987 96.8493C53.3203 96.6421 53.3866 96.4081 53.4976 96.1474C53.4869 96.1295 53.4673 96.0562 53.4388 95.9276C53.4103 95.7989 53.4032 95.706 53.4176 95.6489C53.4069 95.631 53.4104 95.6167 53.4283 95.606C53.4462 95.5953 53.4498 95.581 53.4391 95.5631C53.4569 95.5524 53.4588 95.5149 53.4445 95.4506C53.441 95.4041 53.4428 95.3666 53.45 95.3381L53.5466 95.1345C53.5788 95.0666 53.6093 94.9148 53.6381 94.679C53.6668 94.4432 53.7241 94.2753 53.8099 94.1754C53.8422 94.1075 53.919 94.0129 54.0406 93.8915C54.1801 93.7594 54.2695 93.6451 54.3089 93.5487C54.3338 93.6309 54.2747 93.7756 54.1317 93.9827C54.0601 94.147 53.9544 94.4774 53.8147 94.9739C53.8394 95.2991 53.8196 95.5902 53.7551 95.8474C53.8336 95.8975 53.9444 95.8797 54.0874 95.7941L54.0877 95.4297C54.0841 95.3832 54.0591 95.3618 54.0127 95.3653C53.9841 95.3581 53.9645 95.3456 53.9538 95.3277C53.9788 95.2884 54.0325 95.1349 54.1149 94.867C54.1866 94.5812 54.2636 94.3651 54.3458 94.2187C54.4602 94.2473 54.528 94.2795 54.5494 94.3153L54.6567 94.2511C54.7103 94.2189 54.7174 94.1904 54.6782 94.1653L54.5924 94.1438C54.6496 94.1582 54.6889 94.1225 54.7104 94.0367C54.7319 93.951 54.7713 93.9153 54.8284 93.9296C54.8107 93.6974 54.9091 93.517 55.1236 93.3886C55.3417 93.1851 55.4901 92.9869 55.5689 92.794C55.5295 92.8905 55.4222 93.0762 55.2469 93.3511C55.0788 93.5975 54.9572 93.7797 54.882 93.8975C54.8749 93.9261 54.8856 93.944 54.9141 93.9511C54.9427 93.9583 54.9534 93.9762 54.9463 94.0047C54.9391 94.0333 54.8998 94.069 54.8283 94.1118C54.7747 94.144 54.7353 94.1797 54.7103 94.2189C54.6495 94.2796 54.6315 94.4118 54.6564 94.6155C54.6599 94.6619 54.6331 94.7387 54.5758 94.8459L54.5167 94.9905C54.5131 95.0656 54.5345 95.162 54.5808 95.28C54.6165 95.3801 54.6218 95.4497 54.5967 95.489L54.6931 95.6499C54.7145 95.6856 54.7431 95.6928 54.7788 95.6714C54.8324 95.6393 54.861 95.6464 54.8646 95.6929C54.886 95.7286 54.8824 95.7429 54.8538 95.7357C54.8145 95.7107 54.8002 95.7071 54.8109 95.725C54.8215 95.8643 54.8537 95.918 54.9073 95.8858C54.8751 95.9537 54.8518 96.0769 54.8373 96.2556C54.8408 96.4235 54.8389 96.5218 54.8317 96.5503C54.8424 96.5682 54.8657 96.5664 54.9014 96.545C54.9372 96.5236 54.9604 96.5219 54.9711 96.5397C54.8996 96.5826 54.896 96.6576 54.9602 96.7648C54.9743 96.9506 55.0172 97.0221 55.0886 96.9793L55.0456 97.1508C55.0563 97.1686 55.0581 97.1919 55.0509 97.2204C55.0438 97.249 55.0455 97.2722 55.0562 97.2901C55.1419 97.4331 55.1668 97.5153 55.1311 97.5367C55.1346 97.5831 55.1507 97.61 55.1793 97.6171C55.215 97.5957 55.2382 97.5939 55.2489 97.6118L55.3934 97.8531C55.4042 97.871 55.4113 97.9031 55.4148 97.9496C55.4183 97.996 55.4255 98.0282 55.4362 98.0461C55.5647 98.1391 55.6397 98.2642 55.661 98.4214L55.704 98.2499C55.7683 98.2357 55.7897 98.2714 55.7682 98.3572C55.7432 98.3964 55.736 98.425 55.7467 98.4429C55.8216 98.568 55.9805 98.7521 56.2233 98.9953C56.359 99.0597 56.5268 99.1777 56.7268 99.3494C56.7482 99.3851 56.7875 99.4102 56.8446 99.4245C56.9089 99.4103 56.9464 99.4121 56.9571 99.43C56.975 99.4193 57 99.4407 57.0321 99.4943C57.0714 99.5194 57.116 99.5533 57.166 99.5963C57.216 99.6392 57.2696 99.6678 57.3267 99.6821C57.4839 99.7823 57.6161 99.8003 57.7233 99.736L57.7018 99.8218C57.7375 99.8004 57.7768 99.8254 57.8196 99.8969L57.9805 99.8005C58.0591 99.8506 58.1555 99.89 58.2698 99.9187L58.3555 99.9402L58.4413 99.9617C58.4984 99.976 58.5449 99.9725 58.5806 99.9511C58.6378 99.9654 58.6771 99.9905 58.6985 100.026C58.9486 99.9978 59.079 99.9925 59.0897 100.01C59.8543 99.9896 60.8424 99.7742 62.0539 99.3642L62.4293 99.1394L62.6437 99.011L62.8635 98.9522L63.1852 98.7595C63.3139 98.731 63.4497 98.674 63.5927 98.5883C63.682 98.5348 63.7928 98.4563 63.9251 98.3528C64.0753 98.2386 64.195 98.1547 64.2844 98.1012C64.4274 98.0155 64.5239 97.9334 64.574 97.8549L64.8957 97.6622L65.2978 97.4213C65.3336 97.3999 65.4015 97.3107 65.5017 97.1535C65.5374 97.1321 65.6054 97.0428 65.7056 96.8857L65.9309 96.5322C65.9381 96.5036 65.9828 96.4768 66.065 96.4519C66.1543 96.3984 66.1972 96.3484 66.1937 96.3019C66.2975 96.0698 66.3798 95.9233 66.4406 95.8627L66.6499 95.4823C66.7608 95.343 66.87 95.0591 66.9775 94.6304C67.0847 94.5662 67.1169 94.4983 67.0741 94.4268C67.1242 94.3483 67.1636 94.2518 67.1922 94.1375L67.2352 93.9661L67.3104 93.8482C67.2782 93.7946 67.2551 93.6749 67.241 93.4891L67.3323 93.2158L67.4395 93.1516C67.4288 93.1337 67.4271 93.1105 67.4342 93.0819C67.4414 93.0534 67.4396 93.0301 67.4289 93.0123L67.3326 92.8514C67.3397 92.8228 67.372 92.6942 67.4293 92.4656C67.4867 92.237 67.4922 92.0637 67.4458 91.9458C67.4423 91.8993 67.4227 91.8261 67.387 91.726C67.3514 91.6259 67.3318 91.5527 67.3283 91.5062C67.3426 91.4491 67.3427 91.3276 67.3285 91.1418C67.325 91.0953 67.3268 91.0578 67.334 91.0292C67.3305 90.9828 67.3323 90.9453 67.3394 90.9167C67.3466 90.8881 67.3448 90.8649 67.3341 90.847C67.3127 90.8113 67.3092 90.7648 67.3235 90.7077C67.3307 90.6791 67.3272 90.6326 67.3129 90.5683C67.288 90.4861 67.2791 90.4307 67.2862 90.4022C67.2434 90.3307 67.2292 90.2663 67.2435 90.2092L67.1687 89.9626L67.0723 89.8017C67.0402 89.7481 67.0242 89.6606 67.0243 89.5391C67.0244 89.4176 67.0084 89.3301 66.9763 89.2765C66.887 89.2085 66.821 89.1388 66.7781 89.0673C66.6784 88.7385 66.5642 88.4669 66.4358 88.2524C66.4037 88.1988 66.3787 88.1166 66.3609 88.0058C66.3432 87.895 66.3236 87.8218 66.3022 87.786L66.0452 87.3571C65.9168 87.1426 65.8597 87.0068 65.8741 86.9496C65.5527 86.6564 65.2833 86.2471 65.0658 85.7217C65.0336 85.6681 64.9997 85.652 64.964 85.6734C64.9283 85.5733 64.8302 85.45 64.6695 85.3034C64.5267 85.1461 64.4285 85.0227 64.375 84.9334C64.3536 84.8976 64.3072 84.9012 64.2357 84.944C64.2358 84.8225 64.1197 84.7099 63.8876 84.6061L63.6949 84.2844L63.395 84.0269C63.2378 83.9267 63.1486 83.8588 63.1272 83.823C63.0629 83.7158 62.9558 83.5978 62.8059 83.4691C62.713 83.4761 62.588 83.4296 62.4308 83.3294C62.3701 83.2686 62.2916 83.2186 62.1951 83.1792C62.1451 83.1363 62.1059 83.1112 62.0773 83.1041C62.0559 83.0683 62.013 83.0576 61.9487 83.0718C61.8737 83.0682 61.8308 83.0574 61.8201 83.0395C61.7915 83.0324 61.7612 83.002 61.7291 82.9484C61.6969 82.8947 61.6719 82.8733 61.6541 82.884L61.4826 82.841C61.454 82.8338 61.4237 82.8034 61.3916 82.7498C61.3487 82.6783 61.3077 82.63 61.2684 82.605L61.1827 82.5835C61.1469 82.6049 61.1184 82.5977 61.097 82.562C61.0684 82.5548 61.0327 82.5155 60.9899 82.444C60.947 82.3725 60.9113 82.3332 60.8828 82.326C60.8721 82.3081 60.7416 82.3134 60.4915 82.3418C60.3772 82.3131 60.2898 82.2077 60.2292 82.0254C60.1827 82.0289 59.9862 82.0252 59.6396 82.0142C59.5825 81.9999 59.461 81.9998 59.2752 82.0139C59.2538 81.9782 59.2145 81.9531 59.1574 81.9388L58.9859 81.8958L58.734 81.901C58.7161 81.9117 58.684 81.9188 58.6375 81.9223C58.5911 81.9259 58.5589 81.933 58.541 81.9437C58.5125 81.9365 58.4785 81.9204 58.4392 81.8954C58.4 81.8703 58.3714 81.8632 58.3535 81.8739C58.2392 81.8452 58.1356 81.8344 58.0427 81.8415L57.6998 81.7555C57.6426 81.7411 57.5425 81.7768 57.3996 81.8624L57.1583 82.0069C57.1402 82.2606 57.1044 82.4035 57.0508 82.4356C57.0043 82.4391 56.9507 82.4105 56.89 82.3497C56.8472 82.2782 56.8115 82.2389 56.7829 82.2317L56.5042 82.2529C56.4757 82.2458 56.4382 82.244 56.3917 82.2475C56.3453 82.251 56.3077 82.2492 56.2792 82.242L56.1719 82.3063C56.1541 82.317 56.1201 82.3616 56.07 82.4402C56.0378 82.508 56.0127 82.5473 55.9949 82.558C55.9413 82.5901 55.8609 82.5776 55.7537 82.5203C55.6466 82.4631 55.5662 82.4505 55.5126 82.4826C55.4768 82.504 55.4393 82.563 55.3999 82.6594C55.3784 82.7451 55.3587 82.7933 55.3408 82.8041L55.1051 82.6538C55.0266 82.6037 54.9766 82.5608 54.9552 82.5251C54.9266 82.5179 54.9087 82.5286 54.9016 82.5572C54.8944 82.5858 54.8765 82.5965 54.8479 82.5893C54.6587 82.4355 54.4837 82.4068 54.3228 82.5031C54.2942 82.496 54.2388 82.5049 54.1566 82.5298C54.0923 82.544 54.0369 82.5529 53.9905 82.5565C53.919 82.5993 53.8368 82.6242 53.7439 82.6313C53.6724 82.6741 53.6081 82.6884 53.5509 82.674C53.3472 82.6989 52.8435 82.6485 52.0397 82.5228C52.0183 82.4871 51.9933 82.4656 51.9647 82.4584C51.9254 82.4334 51.9005 82.4119 51.8897 82.3941C51.7469 82.3582 51.5128 82.3527 51.1877 82.3774C51.1556 82.3238 51.0967 82.2863 51.0109 82.2647C50.9145 82.2254 50.8556 82.1878 50.8341 82.1521C50.6377 82.0269 50.4109 81.932 50.1537 81.8675L49.5536 81.717C49.475 81.6669 49.3376 81.5792 49.1411 81.454C48.9519 81.3003 48.7894 81.1912 48.6537 81.1267L48.4931 80.8586C48.4217 80.78 48.2735 80.6745 48.0485 80.5421C47.8307 80.3812 47.6915 80.2703 47.6308 80.2095C47.588 80.138 47.5738 80.0129 47.5882 79.8343C47.5775 79.8164 47.5525 79.795 47.5132 79.7699C47.4739 79.7449 47.4489 79.7234 47.4382 79.7056C47.4848 79.5806 47.4385 79.4019 47.2993 79.1695C47.1601 78.9372 47.0727 78.771 47.0371 78.6709C47.0264 78.653 47.0371 78.6102 47.0693 78.5423C47.1087 78.4459 47.1266 78.3744 47.1231 78.328C47.1267 78.2529 47.109 78.1422 47.0698 77.9957C47.0199 77.8313 46.9985 77.7348 47.0057 77.7062C47.2776 77.2276 47.4601 76.8026 47.5533 76.4311L48.1438 75.1668L48.3047 75.0704C48.319 75.0133 48.3709 74.9579 48.4602 74.9044C48.3931 73.9004 48.3311 73.2697 48.2741 73.0124C48.2029 72.6908 48.0978 72.3531 47.9587 71.9993C47.8589 71.6705 47.7395 71.3899 47.6003 71.1576C47.29 70.5178 46.8527 69.9904 46.2885 69.5755C45.7958 69.1178 45.1779 68.7958 44.4349 68.6094C43.6383 68.4552 42.9237 68.4582 42.2912 68.6185L42.0982 68.6612L41.991 68.7254L41.7765 68.8539L41.7229 68.886L41.3744 69.0947L41.2671 69.159C40.999 69.3195 40.7291 69.5784 40.4573 69.9354C39.9281 70.471 39.6881 71.1854 39.7374 72.0786C39.7546 73.0397 40.0092 74.0528 40.5015 75.1179C41.2895 77.123 42.4704 79.3784 44.0441 81.8842C44.5401 82.6313 45.3092 83.7127 46.3514 85.1284C47.3007 86.5511 48.0018 87.8433 48.4546 89.0048C48.7576 89.9161 48.9358 90.5379 48.9891 90.8703C49.1709 91.4171 49.2562 91.9852 49.245 92.5747C49.2701 92.5355 49.3059 92.4533 49.3524 92.3283C49.4168 92.1926 49.4616 92.1051 49.4866 92.0658C49.49 92.2337 49.4202 92.4212 49.2772 92.6284C49.27 92.6569 49.2789 92.7123 49.3038 92.7945C49.3181 92.8588 49.327 92.9142 49.3305 92.9607C49.2946 93.1036 49.2981 93.2715 49.3408 93.4645C49.3193 93.5502 49.3388 93.7449 49.3993 94.0487L49.3077 94.6864C49.3041 94.7614 49.2986 94.8739 49.2914 95.024C49.2734 95.1562 49.2626 95.2598 49.259 95.3348C49.2339 95.3741 49.2196 95.4312 49.216 95.5063C49.2123 95.5813 49.2159 95.6277 49.2266 95.6456C49.1765 95.7242 49.1371 95.8206 49.1084 95.9349L49.0333 96.0528L49.0118 96.1385L49.0439 96.1921C48.9187 96.3885 48.8525 96.501 48.8454 96.5296L48.7381 96.5938L48.7166 96.6796L48.5558 96.7759C48.4485 96.8401 48.3663 96.8651 48.3092 96.8508C48.152 96.8721 47.9591 96.7933 47.7306 96.6145C47.5199 96.425 47.3199 96.314 47.1306 96.2817C46.9484 96.2209 46.7466 96.2082 46.525 96.2438C46.3035 96.2793 46.1481 96.2631 46.0588 96.1952C45.9802 96.1451 45.9302 96.1022 45.9088 96.0664L45.8446 95.9592L45.8125 95.9056L45.7267 95.8841C45.5696 95.7839 45.4857 95.7249 45.475 95.707L45.3893 95.6855C45.35 95.6605 45.3125 95.6586 45.2767 95.6801C45.2553 95.6443 45.2393 95.5568 45.2287 95.4174C45.1859 95.3459 45.1609 95.2637 45.1539 95.1708L44.8703 94.5757C44.5812 94.0932 44.1601 93.5319 43.6068 92.8919C43.439 92.6524 43.1945 92.3253 42.8733 91.9106C42.5521 91.4959 42.3183 91.1866 42.172 90.9829C40.7013 89.2167 39.2059 87.1254 37.6857 84.709C36.7437 83.1362 36.0569 81.9083 35.6252 81.0255C34.7975 79.4814 34.1823 78.0892 33.7795 76.8491C33.5299 76.2701 33.3072 75.4321 33.1116 74.3351C32.9336 73.4703 32.8682 72.4895 32.9155 71.3927C32.9628 70.4173 33.1654 69.3974 33.5235 68.333C33.8493 67.4579 34.411 66.5508 35.2085 65.6117C35.8128 64.9584 36.5672 64.3123 37.4716 63.6734L38.3027 63.1756L38.678 62.9508L38.9246 62.876L39.0855 62.7797C39.2285 62.694 39.3464 62.6477 39.4393 62.6406C39.5036 62.6264 39.6126 62.5854 39.7663 62.5176C39.9379 62.4391 40.0558 62.3928 40.1201 62.3785C41.0744 62.0255 42.0195 61.8601 42.9556 61.8823C43.8203 61.8258 44.7081 61.889 45.6191 62.072C46.3871 62.219 47.1801 62.5091 47.9979 62.942C48.6551 63.2284 49.3497 63.638 50.0817 64.1709C50.703 64.7216 51.2599 65.2866 51.7525 65.8658C52.2129 66.5128 52.6037 67.1652 52.9247 67.8228C53.5347 69.0845 53.8266 70.4032 53.8006 71.7787L53.9614 71.6824C54.1186 71.661 54.308 71.6934 54.5294 71.7793C54.7688 71.8545 54.9259 71.8939 55.001 71.8975C55.3012 71.7906 55.5692 71.7515 55.805 71.7803C55.9976 72.102 56.1476 72.2915 56.2547 72.3487C56.3476 72.3416 56.6085 72.2096 57.0375 71.9527C57.1447 71.8885 57.2448 71.8528 57.3377 71.8458C57.3948 71.8601 57.4769 71.9566 57.584 72.1354C57.8412 72.1999 58.0037 72.2482 58.0716 72.2804L58.3288 72.345C58.4003 72.3021 58.4932 72.2951 58.6075 72.3237L59.1915 72.4475C59.3309 72.4368 59.5292 72.4638 59.7864 72.5283C59.9757 72.5606 60.224 72.6305 60.5311 72.7379C60.8383 72.8453 61.0634 72.917 61.2062 72.9528C61.292 72.9743 61.4063 73.003 61.5492 73.0388C61.6921 73.0747 61.8117 73.1123 61.9082 73.1516C61.9939 73.1731 62.0903 73.2125 62.1975 73.2698C62.3225 73.3163 62.4207 73.3789 62.4921 73.4576C62.6851 73.4149 62.8565 73.4579 63.0065 73.5866C63.0636 73.6009 63.1458 73.6367 63.2529 73.694C63.378 73.7405 63.469 73.771 63.5262 73.7853L63.8476 73.957C63.8869 73.9821 63.9601 74.0232 64.0673 74.0805C64.1637 74.1199 64.2316 74.1521 64.2708 74.1771C64.328 74.1914 64.5601 74.2952 64.9673 74.4885C65.5281 74.7355 65.9923 75.0038 66.3601 75.2935C66.4494 75.3614 66.5976 75.4669 66.8047 75.61C67.0011 75.7352 67.1439 75.8318 67.2332 75.8998C67.3046 75.9784 67.426 76.1 67.5974 76.2645C67.758 76.4111 67.8741 76.5237 67.9455 76.6024C68.3026 76.7527 68.5508 76.9441 68.69 77.1764L69.3165 77.8575C69.4878 78.022 69.661 78.149 69.836 78.2385C69.936 78.3243 70.0395 78.4566 70.1466 78.6353L70.3071 78.9034C70.7177 79.2646 70.9944 79.5238 71.1372 79.6811C71.1693 79.7347 71.2193 79.8384 71.287 79.9921C71.3441 80.1279 71.4047 80.2494 71.469 80.3567C71.5404 80.4353 71.6243 80.4943 71.7207 80.5337ZM54.1035 88.827C54.0821 88.7912 54.1786 88.7091 54.3931 88.5807C54.3859 88.6093 54.3377 88.6503 54.2483 88.7038C54.1589 88.7573 54.1107 88.7984 54.1035 88.827ZM58.3819 86.6651C58.507 86.5902 58.6553 86.5742 58.8268 86.6172C58.7874 86.7137 58.6391 86.7296 58.3819 86.6651ZM53.985 89.6629L54.3871 89.4221L53.985 89.6629ZM55.009 89.1224C55.2414 88.9833 55.4147 88.928 55.529 88.9567C55.1287 89.0993 54.8124 89.2402 54.5801 89.3794C54.6552 89.2615 54.7982 89.1759 55.009 89.1224ZM56.3012 88.4214C56.7693 88.311 57.1391 88.2595 57.4107 88.2668C57.1391 88.2595 56.7693 88.311 56.3012 88.4214ZM55.255 89.7765C54.9834 89.8906 54.6599 90.0601 54.2846 90.2849C54.2918 90.2563 54.3311 90.2206 54.4026 90.1778C54.4741 90.1349 54.5456 90.0921 54.6171 90.0493C54.6885 90.0065 54.7189 89.9761 54.7082 89.9583C54.7154 89.9297 54.6922 89.9315 54.6386 89.9636C54.5457 89.9706 54.4939 89.9652 54.4832 89.9474L54.6976 89.8189L54.7619 89.9262L55.2444 89.6371C55.2301 89.6943 55.205 89.7336 55.1693 89.755C55.3123 89.6693 55.4481 89.6123 55.5767 89.5838C55.6661 89.5303 55.7679 89.5178 55.8822 89.5465C55.918 89.5251 55.9823 89.5109 56.0752 89.5038C56.1574 89.4788 56.2164 89.4557 56.2521 89.4343C56.0377 89.5627 55.7053 89.6768 55.255 89.7765ZM58.3275 87.7906C58.1845 87.8762 58.0737 87.894 57.9951 87.8439C58.1024 87.7797 58.2132 87.7619 58.3275 87.7906ZM57.8985 88.0475L58.0915 88.0047C58.1379 88.0012 58.1486 88.0191 58.1236 88.0584C58.095 88.0512 58.0575 88.0494 58.0111 88.0529C57.9467 88.0672 57.9092 88.0653 57.8985 88.0475ZM58.3754 88.2354L57.6894 88.2456C57.8323 88.16 58.061 88.1566 58.3754 88.2354ZM56.9168 89.3276L56.9704 89.2955C57.0598 89.2419 57.1616 89.2295 57.2759 89.2582C57.1508 89.3331 57.0311 89.3563 56.9168 89.3276ZM54.7497 91.7912C54.7605 91.6876 54.8642 91.5769 55.0608 91.4592C55.2467 91.3235 55.4093 91.2504 55.5487 91.2398L55.2269 91.4325L54.9857 91.577C54.9499 91.5984 54.9016 91.6395 54.8409 91.7002C54.7979 91.7501 54.7676 91.7805 54.7497 91.7912ZM55.5702 91.1541L55.8864 91.0739C55.8578 91.0668 55.8167 91.0792 55.7631 91.1113L55.5487 91.2398L55.5702 91.1541ZM56.0633 91.0044L56.3314 90.8438L56.0633 91.0044ZM56.7278 91.0799L56.6206 91.1442C56.6027 91.1549 56.5616 91.1673 56.4973 91.1816C56.4508 91.1851 56.4187 91.1922 56.4008 91.2029C56.4509 91.1244 56.5599 91.0834 56.7278 91.0799ZM57.0062 91.4232L56.9205 91.4016L56.8348 91.3801C56.8491 91.323 56.8849 91.3016 56.942 91.3159C57.0063 91.3017 57.0278 91.3374 57.0062 91.4232ZM50.5124 96.1504C50.559 96.0254 50.5502 95.8485 50.486 95.6198C50.4861 95.4983 50.5398 95.3447 50.6472 95.159C50.6006 95.284 50.5719 95.4591 50.561 95.6842C50.568 95.8985 50.5518 96.054 50.5124 96.1504ZM55.8213 92.06C55.8606 92.085 55.8677 92.1172 55.8427 92.1565C55.807 92.1779 55.7533 92.21 55.6818 92.2528L55.5586 92.2902C55.5657 92.2617 55.6051 92.226 55.6765 92.1831C55.748 92.1403 55.7963 92.0993 55.8213 92.06ZM56.1215 91.953C56.1323 91.9709 56.0929 92.0066 56.0036 92.0601L55.9875 92.0333L56.0679 91.9852L56.1215 91.953ZM56.9954 91.6482L56.7756 91.707C56.6827 91.7141 56.6005 91.739 56.529 91.7819C56.4718 91.7675 56.3539 91.8139 56.1752 91.9209C56.1895 91.8638 56.2503 91.8031 56.3575 91.7388C56.3933 91.7174 56.4344 91.705 56.4808 91.7014C56.5451 91.6872 56.5862 91.6747 56.6041 91.664C56.8756 91.6714 57.049 91.6161 57.1241 91.4983L57.1777 91.4662C57.2599 91.4412 57.4082 91.4253 57.6226 91.4183C57.8548 91.4006 58.021 91.3739 58.1211 91.3383L58.1156 91.4508C58.3479 91.4331 58.4783 91.4279 58.5069 91.435C58.6462 91.4244 58.7426 91.4638 58.7962 91.5532C58.6568 91.5638 58.4871 91.544 58.2871 91.4938L58.1477 91.5044C58.0548 91.5115 57.9726 91.5364 57.9011 91.5793C57.8904 91.5614 57.8708 91.5489 57.8422 91.5417C57.8029 91.5167 57.7779 91.4952 57.7672 91.4773L57.3813 91.5628C57.3348 91.5663 57.2795 91.5752 57.2151 91.5895C57.1508 91.6037 57.1008 91.6215 57.065 91.6429C57.0365 91.6358 57.0132 91.6375 56.9954 91.6482ZM54.5663 93.2488L54.4591 93.313C54.4163 93.2415 54.4127 93.1951 54.4485 93.1737C54.4699 93.2094 54.5092 93.2345 54.5663 93.2488ZM56.5823 92.1142C56.5394 92.1642 56.4626 92.198 56.3518 92.2158C56.2589 92.2229 56.1999 92.2461 56.1749 92.2854C56.1606 92.221 56.2232 92.1836 56.3625 92.173C56.4912 92.1445 56.5645 92.1249 56.5823 92.1142ZM55.8049 92.5798C55.8192 92.5227 55.9247 92.4352 56.1213 92.3175C56.1069 92.3746 56.0015 92.4621 55.8049 92.5798ZM55.6546 92.8155C55.6332 92.7798 55.6761 92.7298 55.7834 92.6656L55.6546 92.8155ZM53.1822 95.1342L53.2467 94.877C53.2931 94.8735 53.3092 94.9003 53.2948 94.9574C53.2805 95.0146 53.2679 95.095 53.2571 95.1986C53.2356 95.2843 53.2356 95.345 53.257 95.3808L53.1604 95.5844C53.1317 95.6987 53.1084 95.7612 53.0906 95.7719C53.087 95.7254 53.0924 95.6736 53.1068 95.6165L53.1713 95.3593L53.1822 95.1342ZM54.2479 96.0622L54.2477 96.4266C54.3048 96.441 54.3513 96.4374 54.387 96.416C54.4406 96.3839 54.4871 96.3804 54.5264 96.4054C54.5407 96.3482 54.5265 96.2839 54.4836 96.2124L54.5803 96.0089C54.516 95.9016 54.509 95.8087 54.559 95.7302C54.5305 95.723 54.5055 95.7015 54.4841 95.6658C54.4519 95.6122 54.4448 95.58 54.4627 95.5693C54.4842 95.4836 54.4414 95.4121 54.3342 95.3548C54.3056 95.4691 54.2412 95.6049 54.141 95.762C54.141 95.762 54.1874 95.7584 54.2803 95.7514C54.2517 95.8657 54.2409 95.9693 54.2479 96.0622ZM54.3334 96.4481C54.3119 96.5339 54.3333 96.5696 54.3976 96.5554C54.3941 96.5089 54.4013 96.4803 54.4191 96.4696C54.3834 96.491 54.3548 96.4839 54.3334 96.4481ZM55.1741 97.3652L55.1847 97.5046C55.1633 97.4688 55.1598 97.4224 55.1741 97.3652ZM56.4069 97.1732C56.3604 97.1768 56.3212 97.1517 56.289 97.0981C56.2641 97.0159 56.2731 96.9498 56.316 96.8999C56.3446 96.907 56.3713 96.9517 56.3963 97.0339L56.4069 97.1732ZM56.5136 97.8379L56.4493 97.7307L56.5136 97.8379ZM56.3312 98.02C56.2955 98.0414 56.2722 98.0431 56.2615 98.0253C56.258 97.9788 56.2884 97.9485 56.3527 97.9342L56.3312 98.02ZM51.31 104.233C51.3815 104.19 51.4708 104.258 51.5778 104.437C51.4635 104.408 51.3743 104.34 51.31 104.233ZM106.053 84.7359C106.353 84.8599 106.879 85.014 107.632 85.1981C108.384 85.3822 108.977 85.5877 109.409 85.8145C109.217 85.8943 109.031 86.0726 108.853 86.3495C108.639 86.5959 108.429 86.7958 108.222 86.9492C107.742 87.2608 107.009 87.4517 106.024 87.522C104.838 87.6527 103.613 87.5286 102.351 87.1495C101.116 86.7818 100.006 86.1146 99.0186 85.148C98.9323 85.0484 98.8642 85.0203 98.8145 85.0634C98.8032 85.0907 98.7879 85.1083 98.7687 85.1162C98.7607 85.097 98.7352 85.0625 98.692 85.0127C98.6568 84.9822 98.6136 84.9324 98.5625 84.8634C98.5113 84.7944 98.4681 84.7447 98.4329 84.7141L98.0998 85.4611C97.942 85.8422 97.7835 86.1672 97.6243 86.4362L97.3109 86.9043L96.9448 87.3267C96.8419 87.4595 96.7832 87.5628 96.7687 87.6364C96.7541 87.7101 96.7644 87.7622 96.7996 87.7928C96.8269 87.804 96.8292 87.8369 96.8067 87.8913C96.7954 87.9186 96.7496 87.9713 96.6693 88.0497C96.6388 88.0849 96.5416 88.2041 96.3778 88.4073C96.2252 88.5833 96.0855 88.7089 95.9588 88.7839L95.5398 89.1605C95.4628 89.1924 95.3938 89.2436 95.3328 89.314L95.0103 89.5153C94.8371 89.5871 94.6509 89.7093 94.4519 89.882L94.1632 90.0017L94.0139 90.1312L93.8984 90.179L93.6675 90.2747L93.1767 90.4781C91.9304 91.0623 90.59 91.3923 89.1556 91.468C88.4984 91.5149 87.7333 91.4373 86.8603 91.2353C86.314 91.1685 85.5877 90.9396 84.6814 90.5484C83.5798 90.0126 82.4107 89.1779 81.1741 88.0441C80.2834 87.0376 79.541 85.9809 78.947 84.874C78.452 83.9515 77.9821 82.8721 77.5373 81.6357C76.8731 79.5431 76.5198 77.4118 76.4775 75.2418C76.4674 73.8027 76.503 72.7731 76.5843 72.1531C76.6728 71.1693 76.8797 70.2265 77.2051 69.3249C77.424 68.8734 77.7306 68.1713 78.125 67.2185C78.5195 66.2657 78.8318 65.55 79.0619 65.0713C79.9192 63.3854 80.9704 62.1943 82.2153 61.498C82.3083 61.5045 82.4068 61.4975 82.511 61.4769C82.6153 61.4563 82.7387 61.4276 82.8814 61.3911C83.0161 61.3352 83.1163 61.305 83.1821 61.3003C83.6421 61.2675 83.9753 61.3098 84.1818 61.4272C84.2429 61.3568 84.3271 61.2881 84.4346 61.221C84.5534 61.1266 84.6665 61.0459 84.774 60.9788C84.9008 60.9037 84.989 60.8446 85.0388 60.8014L85.876 60.4545C86.0492 60.3827 86.313 60.2846 86.6674 60.1603C87.0218 60.036 87.2953 59.934 87.4877 59.8542C87.5534 59.8495 87.6039 59.8624 87.6391 59.893C87.6743 59.9235 87.6942 59.9716 87.6989 60.0373C87.7149 60.0758 87.7212 60.1183 87.7179 60.1647C87.7338 60.2032 87.7345 60.2593 87.72 60.333C87.7247 60.3987 87.731 60.4412 87.739 60.4605C87.954 60.3263 88.2635 60.1754 88.6677 60.0079C89.0461 59.9413 89.3378 59.9106 89.5429 59.9158L89.9034 59.9694L90.0667 60.037L90.2878 60.0807C90.5553 60.1277 90.778 60.1482 90.9559 60.1421C90.901 60.3904 90.911 60.5779 90.9861 60.7047C91.0804 60.8234 91.2196 60.9687 91.4035 61.1405C91.5875 61.3124 91.7034 61.456 91.7513 61.5715C91.8503 61.756 91.8929 62.0766 91.8792 62.5333C91.8848 62.982 91.9716 63.2731 92.1396 63.4064C92.1602 63.5106 92.1424 63.6308 92.086 63.7669C92.0489 63.895 92.0343 63.9687 92.0423 63.9879L91.7937 64.5307C91.7486 64.6396 91.734 64.7133 91.75 64.7518L91.6486 64.9968C91.6612 65.0818 91.653 65.1979 91.6238 65.3453C91.5867 65.4734 91.5722 65.5471 91.5802 65.5664L91.0668 66.2865C90.8724 66.525 90.7069 66.7514 90.5703 66.9659C90.4642 67.1452 90.3186 67.4197 90.1336 67.7896C89.9678 68.1514 89.8697 68.35 89.8392 68.3852C89.7072 68.6654 89.5793 68.9552 89.4553 69.2546C89.3313 69.5541 89.1905 69.8943 89.0327 70.2755C88.8941 70.6486 88.7742 70.9576 88.6727 71.2026C88.6502 71.2571 88.5046 71.5317 88.2361 72.0263C87.9867 72.513 87.8329 72.9038 87.7747 73.1985C87.3858 74.6 87.3228 76.0807 87.5859 77.6405L87.6956 78.0686C87.7275 78.1456 87.7322 78.2113 87.7097 78.2657C87.7496 78.362 87.7958 78.5007 87.8483 78.6819C87.9008 78.863 87.9431 78.9921 87.975 79.0691C88.1917 79.7009 88.496 80.2175 88.8879 80.6189C89.291 80.9931 89.769 81.1671 90.322 81.1409C90.8942 81.1068 91.4824 80.6487 92.0866 79.7669C92.874 78.6738 93.2929 77.508 93.3433 76.2693C92.8483 75.3469 92.5649 74.799 92.4931 74.6258C92.41 74.4798 92.2695 74.2224 92.0715 73.8534C91.8655 73.4652 91.7426 73.223 91.7027 73.1267C91.6741 73.0033 91.5913 72.7219 91.4543 72.2825C91.4417 72.1975 91.2737 71.6019 90.9505 70.4955C90.6892 69.7017 90.6889 69.0478 90.9495 68.5339C90.98 68.4987 91.0732 68.3699 91.2291 68.1474C91.3962 67.8978 91.5568 67.741 91.7107 67.6772C91.7192 67.4256 91.7831 67.1172 91.9024 66.7521C92.033 66.3597 92.1072 66.1034 92.125 65.9833C92.1973 65.8857 92.3288 65.8763 92.5193 65.9552C92.5457 65.5834 92.6272 65.2903 92.7638 65.0759C93.0384 64.7591 93.196 64.5134 93.2364 64.3388C93.3612 64.4223 93.4797 64.4634 93.5919 64.4621C93.6961 64.4414 93.8116 64.3936 93.9383 64.3185C94.0651 64.2434 94.1613 64.2035 94.227 64.1988C94.3312 64.1782 94.5171 64.1914 94.7846 64.2384C95.0522 64.2854 95.2493 64.2713 95.3761 64.1962C95.4849 64.2413 95.6722 64.3667 95.9378 64.5723C96.2147 64.7507 96.4541 64.8658 96.6559 64.9174C96.7662 65.0747 97.1634 65.5979 97.8476 66.487C98.5318 67.3762 98.9992 68.0958 99.2498 68.646C99.2737 68.7037 99.4193 69.2184 99.6867 70.1901C99.8669 70.6792 100.294 71.7089 100.967 73.2791C101.659 74.8413 102.055 75.8501 102.153 76.3054C102.23 76.5443 102.346 76.8795 102.502 77.3109C102.651 77.723 102.763 78.0485 102.839 78.2875C102.9 78.4879 102.995 78.7982 103.124 79.2183C103.272 79.6305 103.376 79.9367 103.437 80.1372C103.834 81.2581 104.257 82.2782 104.705 83.1973L104.837 83.5149L104.98 83.8613C105.036 83.996 105.172 84.1878 105.388 84.4366C105.458 84.4976 105.575 84.562 105.738 84.6296C105.894 84.678 105.999 84.7134 106.053 84.7359ZM124.068 56.541C124.102 56.6612 124.213 56.8572 124.399 57.1291C124.218 57.3323 124.1 57.5612 124.042 57.8159C124.025 57.9074 124.019 58.0391 124.025 58.2108C124.031 58.3825 124.036 58.4783 124.042 58.4984C123.802 58.567 123.61 58.7301 123.467 58.9877C123.381 59.1422 123.308 59.228 123.248 59.2452L122.887 59.3482C122.945 59.5485 122.93 59.7259 122.844 59.8805C122.724 59.9148 122.558 60.0164 122.347 60.1852C122.135 60.354 121.956 60.4484 121.81 60.4684C121.638 60.7775 121.302 61.0035 120.801 61.1466C120.581 61.2095 120.273 61.2324 119.878 61.2152C119.775 61.1579 119.681 61.2066 119.595 61.3611C119.529 61.3582 119.415 61.3367 119.251 61.2967C119.103 61.2308 118.983 61.1893 118.891 61.1721C118.776 61.2265 118.746 61.3109 118.801 61.4254C118.855 61.5399 118.885 61.6071 118.891 61.6272C118.671 61.5384 117.947 61.431 116.719 61.305L116.633 61.4595C116.355 61.4738 116.132 61.4509 115.963 61.3908C115.68 61.385 115.507 61.3478 115.444 61.2791C115.209 61.2162 114.949 61.063 114.663 60.8198C114.548 60.7225 114.388 60.6166 114.182 60.5021C114.042 60.5421 113.955 60.6537 113.92 60.8369L113.551 61.3648L113.508 61.4421L113.482 61.5794L113.457 61.7168L113.474 61.7769L113.396 62.189C113.382 62.5181 113.366 62.7284 113.349 62.82C113.383 63.2435 113.412 63.4953 113.435 63.5755C113.469 63.999 113.506 64.2809 113.546 64.4211L113.838 66.1252C114.222 67.4674 114.642 68.6364 115.1 69.6323C115.303 69.9643 115.678 71.1248 116.224 73.1137C116.791 75.0969 117.111 76.2187 117.185 76.4791C117.231 76.6394 117.311 76.9198 117.426 77.3205C117.56 77.7154 117.659 78.023 117.722 78.2434C117.785 78.4637 117.842 78.7399 117.893 79.0719C117.965 79.3981 117.998 79.7029 117.992 79.9862C117.949 81.2768 117.256 82.4929 115.914 83.6346C115.737 83.6203 115.388 83.6117 114.867 83.6088C114.366 83.6001 113.991 83.5772 113.742 83.54L113.596 83.7117L113.39 84.3555C113.319 84.3326 113.203 84.2682 113.042 84.1623C112.882 84.0564 112.746 83.9978 112.635 83.9863C112.537 83.9491 112.447 83.9748 112.364 84.0635C112.338 84.0492 112.324 83.9992 112.321 83.9133C112.318 83.8275 112.301 83.7674 112.27 83.733C112.224 83.7244 112.15 83.6915 112.047 83.6343C111.964 83.5713 111.889 83.5384 111.823 83.5355C111.76 83.3152 111.635 83.1778 111.446 83.1234C111.42 83.1091 111.413 83.122 111.424 83.162C111.436 83.2021 111.434 83.235 111.42 83.2608C111.414 83.2407 111.393 83.2035 111.356 83.1491C111.313 83.0747 111.285 83.0175 111.274 82.9774C110.73 82.7427 110.368 82.4236 110.188 82.0201C110.159 81.9199 110.142 81.784 110.137 81.6123C110.125 81.4206 110.105 81.2746 110.077 81.1745C109.862 80.4991 109.72 80.0412 109.652 79.8008C109.577 79.5404 109.466 79.0739 109.317 78.4014C109.163 77.7089 109.058 77.2296 109.004 76.9634C108.975 76.7116 108.884 76.3152 108.729 75.7744L108.609 75.3537C107.931 73.2074 107.224 71.1884 106.489 69.2967C105.797 67.3278 105.019 65.4376 104.154 63.6261C103.728 62.6646 103.209 61.6429 102.597 60.5611C102.531 60.4066 102.452 60.2449 102.361 60.076C102.263 59.8872 102.169 59.7083 102.077 59.5394C101.98 59.3506 101.913 59.2289 101.876 59.1746L101.798 58.9041C101.816 58.8126 101.813 58.7267 101.79 58.6466L101.704 58.3461L101.67 58.2259C101.63 58.2373 101.604 58.223 101.592 58.183C101.684 58.2001 101.773 58.1315 101.859 57.977C101.907 57.7681 101.976 57.6293 102.065 57.5606C102.085 57.5549 102.133 57.5735 102.211 57.6164L102.472 57.7366C102.495 57.8168 102.547 57.8454 102.627 57.8225C102.678 57.8511 102.744 57.854 102.824 57.8311L102.481 57.5392C102.361 57.4218 102.329 57.3117 102.387 57.2086C102.49 57.1142 102.63 57.0742 102.807 57.0885L103.228 56.9683C103.646 57.369 103.887 57.5708 103.953 57.5736C103.993 57.5622 104.025 57.5207 104.048 57.4492C104.065 57.3576 104.091 57.2961 104.125 57.2646C104.199 57.2217 104.25 57.2074 104.275 57.2217C104.315 57.2102 104.387 57.2331 104.49 57.2904C104.607 57.3219 104.709 57.3362 104.795 57.3333C104.84 57.1903 104.985 57.1273 105.228 57.1445C105.331 57.2018 105.456 57.2962 105.602 57.4279C105.768 57.5538 105.886 57.6282 105.958 57.6511C105.989 57.6854 106.041 57.7141 106.112 57.737C106.198 57.7341 106.267 57.747 106.318 57.7756L106.336 57.6082L106.494 57.3678L106.537 57.2906L106.606 57.076L106.761 56.7068L107.078 55.9986C107.127 55.9413 107.204 55.8326 107.31 55.6724C107.41 55.4921 107.492 55.3605 107.555 55.2775L107.787 54.9513L107.916 54.7195C107.973 54.6165 108.021 54.5592 108.062 54.5478L108.375 54.1658C108.461 54.0113 108.572 53.8711 108.71 53.7452C108.813 53.6507 108.96 53.522 109.152 53.3589C109.358 53.17 109.495 53.0441 109.564 52.9812C109.618 52.944 109.687 52.881 109.77 52.7923C109.853 52.7036 109.922 52.6407 109.976 52.6035L110.234 52.3674L110.547 52.2129C110.627 52.19 110.816 52.0927 111.114 51.9211L111.771 51.6035C112.174 51.4232 112.645 51.2888 113.183 51.2001C114.101 51.0027 115.037 50.9413 115.99 51.0158C116.568 51.0673 117.397 51.2749 118.475 51.6384C119.028 51.8273 119.677 52.1293 120.424 52.5443C120.785 52.7447 121.054 52.9278 121.231 53.0938L121.939 53.6391C122.394 54.0941 122.718 54.4676 122.909 54.7595C122.958 54.8539 123.035 54.9727 123.141 55.1158C123.241 55.2389 123.307 55.3176 123.339 55.3519L123.716 55.9915C123.779 56.0602 123.854 56.169 123.939 56.3178C124.019 56.4466 124.062 56.521 124.068 56.541ZM113.671 61.3305L113.611 61.3477L113.654 61.2704L113.671 61.3305ZM113.508 61.4421L113.611 61.3477L113.508 61.4421Z" fill="var(--fill-0, white)"/>
<path id="Journey &#226;&#128;&#148; vector detail 01" d="M53.7635 123.302C103.439 79.3158 163.634 102.309 188.763 102.309" stroke="var(--stroke-0, white)" stroke-width="4"/>
</g>
</svg>
